<mxfile host="Electron" modified="2023-12-04T08:55:00.730Z" agent="Mozilla/5.0 (Macintosh; Intel Mac OS X 10_15_7) AppleWebKit/537.36 (KHTML, like Gecko) draw.io/22.1.2 Chrome/114.0.5735.289 Electron/25.9.4 Safari/537.36" etag="0L6cffMR1wNpP-03S1hi" version="22.1.2" type="device">
  <diagram id="Y0QyxQFaRAvVs_M1CLGE" name="第 1 页">
    <mxGraphModel dx="1114" dy="1997" grid="1" gridSize="10" guides="1" tooltips="1" connect="1" arrows="1" fold="1" page="1" pageScale="1" pageWidth="827" pageHeight="1169" math="0" shadow="0">
      <root>
        <mxCell id="0" />
        <mxCell id="1" parent="0" />
        <mxCell id="lVG46q_yBGXqupy8dDVK-3" value="" style="edgeStyle=orthogonalEdgeStyle;rounded=0;orthogonalLoop=1;jettySize=auto;html=1;" parent="1" source="lVG46q_yBGXqupy8dDVK-1" target="lVG46q_yBGXqupy8dDVK-2" edge="1">
          <mxGeometry relative="1" as="geometry" />
        </mxCell>
        <mxCell id="lVG46q_yBGXqupy8dDVK-35" style="edgeStyle=none;rounded=0;orthogonalLoop=1;jettySize=auto;html=1;entryX=0.008;entryY=0.633;entryDx=0;entryDy=0;entryPerimeter=0;" parent="1" source="lVG46q_yBGXqupy8dDVK-1" target="lVG46q_yBGXqupy8dDVK-4" edge="1">
          <mxGeometry relative="1" as="geometry" />
        </mxCell>
        <mxCell id="lVG46q_yBGXqupy8dDVK-36" style="edgeStyle=none;rounded=0;orthogonalLoop=1;jettySize=auto;html=1;entryX=0;entryY=0.5;entryDx=0;entryDy=0;" parent="1" source="lVG46q_yBGXqupy8dDVK-1" target="lVG46q_yBGXqupy8dDVK-34" edge="1">
          <mxGeometry relative="1" as="geometry" />
        </mxCell>
        <mxCell id="lVG46q_yBGXqupy8dDVK-38" style="edgeStyle=none;rounded=0;orthogonalLoop=1;jettySize=auto;html=1;entryX=0.5;entryY=0;entryDx=0;entryDy=0;" parent="1" source="lVG46q_yBGXqupy8dDVK-1" target="lVG46q_yBGXqupy8dDVK-5" edge="1">
          <mxGeometry relative="1" as="geometry">
            <mxPoint x="130" y="390" as="targetPoint" />
          </mxGeometry>
        </mxCell>
        <mxCell id="lVG46q_yBGXqupy8dDVK-1" value="body" style="rounded=1;whiteSpace=wrap;html=1;" parent="1" vertex="1">
          <mxGeometry x="50" y="220" width="120" height="60" as="geometry" />
        </mxCell>
        <mxCell id="lVG46q_yBGXqupy8dDVK-24" style="edgeStyle=none;rounded=0;orthogonalLoop=1;jettySize=auto;html=1;entryX=0;entryY=0.5;entryDx=0;entryDy=0;" parent="1" source="lVG46q_yBGXqupy8dDVK-2" target="lVG46q_yBGXqupy8dDVK-20" edge="1">
          <mxGeometry relative="1" as="geometry" />
        </mxCell>
        <mxCell id="lVG46q_yBGXqupy8dDVK-25" style="edgeStyle=none;rounded=0;orthogonalLoop=1;jettySize=auto;html=1;entryX=0;entryY=0.5;entryDx=0;entryDy=0;" parent="1" source="lVG46q_yBGXqupy8dDVK-2" target="lVG46q_yBGXqupy8dDVK-7" edge="1">
          <mxGeometry relative="1" as="geometry" />
        </mxCell>
        <mxCell id="lVG46q_yBGXqupy8dDVK-26" style="edgeStyle=none;rounded=0;orthogonalLoop=1;jettySize=auto;html=1;" parent="1" source="lVG46q_yBGXqupy8dDVK-2" target="lVG46q_yBGXqupy8dDVK-19" edge="1">
          <mxGeometry relative="1" as="geometry" />
        </mxCell>
        <mxCell id="lVG46q_yBGXqupy8dDVK-27" style="edgeStyle=none;rounded=0;orthogonalLoop=1;jettySize=auto;html=1;" parent="1" source="lVG46q_yBGXqupy8dDVK-2" target="lVG46q_yBGXqupy8dDVK-8" edge="1">
          <mxGeometry relative="1" as="geometry" />
        </mxCell>
        <mxCell id="lVG46q_yBGXqupy8dDVK-43" style="edgeStyle=none;rounded=0;orthogonalLoop=1;jettySize=auto;html=1;entryX=0;entryY=0.5;entryDx=0;entryDy=0;" parent="1" source="lVG46q_yBGXqupy8dDVK-2" target="lVG46q_yBGXqupy8dDVK-12" edge="1">
          <mxGeometry relative="1" as="geometry" />
        </mxCell>
        <mxCell id="lVG46q_yBGXqupy8dDVK-48" style="edgeStyle=none;rounded=0;orthogonalLoop=1;jettySize=auto;html=1;" parent="1" source="lVG46q_yBGXqupy8dDVK-2" target="lVG46q_yBGXqupy8dDVK-9" edge="1">
          <mxGeometry relative="1" as="geometry" />
        </mxCell>
        <mxCell id="lVG46q_yBGXqupy8dDVK-49" style="edgeStyle=none;rounded=0;orthogonalLoop=1;jettySize=auto;html=1;" parent="1" source="lVG46q_yBGXqupy8dDVK-2" target="lVG46q_yBGXqupy8dDVK-10" edge="1">
          <mxGeometry relative="1" as="geometry" />
        </mxCell>
        <mxCell id="lVG46q_yBGXqupy8dDVK-50" style="edgeStyle=none;rounded=0;orthogonalLoop=1;jettySize=auto;html=1;" parent="1" source="lVG46q_yBGXqupy8dDVK-2" target="lVG46q_yBGXqupy8dDVK-11" edge="1">
          <mxGeometry relative="1" as="geometry">
            <mxPoint x="420" y="270" as="targetPoint" />
          </mxGeometry>
        </mxCell>
        <mxCell id="lVG46q_yBGXqupy8dDVK-52" style="edgeStyle=none;rounded=0;orthogonalLoop=1;jettySize=auto;html=1;entryX=0;entryY=0.5;entryDx=0;entryDy=0;" parent="1" source="lVG46q_yBGXqupy8dDVK-2" target="lVG46q_yBGXqupy8dDVK-51" edge="1">
          <mxGeometry relative="1" as="geometry" />
        </mxCell>
        <mxCell id="lVG46q_yBGXqupy8dDVK-2" value="query" style="rounded=1;whiteSpace=wrap;html=1;" parent="1" vertex="1">
          <mxGeometry x="250" y="220" width="120" height="60" as="geometry" />
        </mxCell>
        <mxCell id="lVG46q_yBGXqupy8dDVK-4" value="sort" style="rounded=1;whiteSpace=wrap;html=1;" parent="1" vertex="1">
          <mxGeometry x="250" y="380" width="120" height="60" as="geometry" />
        </mxCell>
        <mxCell id="lVG46q_yBGXqupy8dDVK-30" style="edgeStyle=none;rounded=0;orthogonalLoop=1;jettySize=auto;html=1;entryX=0;entryY=0.5;entryDx=0;entryDy=0;" parent="1" source="lVG46q_yBGXqupy8dDVK-5" target="lVG46q_yBGXqupy8dDVK-39" edge="1">
          <mxGeometry relative="1" as="geometry" />
        </mxCell>
        <mxCell id="lVG46q_yBGXqupy8dDVK-5" value="aggs" style="rounded=1;whiteSpace=wrap;html=1;" parent="1" vertex="1">
          <mxGeometry x="250" y="1169" width="120" height="60" as="geometry" />
        </mxCell>
        <mxCell id="lVG46q_yBGXqupy8dDVK-37" value="等用 term 语义，不等用 range 语义" style="edgeStyle=none;rounded=0;orthogonalLoop=1;jettySize=auto;html=1;entryX=1;entryY=0.5;entryDx=0;entryDy=0;" parent="1" source="lVG46q_yBGXqupy8dDVK-6" target="lVG46q_yBGXqupy8dDVK-10" edge="1">
          <mxGeometry relative="1" as="geometry" />
        </mxCell>
        <mxCell id="lVG46q_yBGXqupy8dDVK-6" value="range" style="rounded=1;whiteSpace=wrap;html=1;" parent="1" vertex="1">
          <mxGeometry x="1070" y="-140" width="120" height="60" as="geometry" />
        </mxCell>
        <mxCell id="lVG46q_yBGXqupy8dDVK-7" value="match" style="rounded=1;whiteSpace=wrap;html=1;" parent="1" vertex="1">
          <mxGeometry x="510" y="140" width="120" height="60" as="geometry" />
        </mxCell>
        <mxCell id="lVG46q_yBGXqupy8dDVK-8" value="match_phrase" style="rounded=1;whiteSpace=wrap;html=1;" parent="1" vertex="1">
          <mxGeometry x="520" y="340" width="120" height="60" as="geometry" />
        </mxCell>
        <mxCell id="lVG46q_yBGXqupy8dDVK-9" value="exists" style="rounded=1;whiteSpace=wrap;html=1;" parent="1" vertex="1">
          <mxGeometry x="520" y="440" width="120" height="60" as="geometry" />
        </mxCell>
        <mxCell id="lVG46q_yBGXqupy8dDVK-10" value="term" style="rounded=1;whiteSpace=wrap;html=1;" parent="1" vertex="1">
          <mxGeometry x="520" y="540" width="120" height="60" as="geometry" />
        </mxCell>
        <mxCell id="lVG46q_yBGXqupy8dDVK-11" value="terms" style="rounded=1;whiteSpace=wrap;html=1;" parent="1" vertex="1">
          <mxGeometry x="520" y="660" width="120" height="60" as="geometry" />
        </mxCell>
        <mxCell id="lVG46q_yBGXqupy8dDVK-16" style="rounded=0;orthogonalLoop=1;jettySize=auto;html=1;entryX=0;entryY=0.75;entryDx=0;entryDy=0;" parent="1" source="lVG46q_yBGXqupy8dDVK-12" target="lVG46q_yBGXqupy8dDVK-13" edge="1">
          <mxGeometry relative="1" as="geometry" />
        </mxCell>
        <mxCell id="lVG46q_yBGXqupy8dDVK-17" style="edgeStyle=none;rounded=0;orthogonalLoop=1;jettySize=auto;html=1;" parent="1" source="lVG46q_yBGXqupy8dDVK-12" target="lVG46q_yBGXqupy8dDVK-14" edge="1">
          <mxGeometry relative="1" as="geometry" />
        </mxCell>
        <mxCell id="lVG46q_yBGXqupy8dDVK-18" style="edgeStyle=none;rounded=0;orthogonalLoop=1;jettySize=auto;html=1;entryX=0;entryY=0.5;entryDx=0;entryDy=0;" parent="1" source="lVG46q_yBGXqupy8dDVK-12" target="lVG46q_yBGXqupy8dDVK-15" edge="1">
          <mxGeometry relative="1" as="geometry" />
        </mxCell>
        <mxCell id="u1p-zUHtt3nSpdrAW3po-2" value="" style="rounded=0;orthogonalLoop=1;jettySize=auto;html=1;entryX=0;entryY=0;entryDx=0;entryDy=0;" parent="1" source="lVG46q_yBGXqupy8dDVK-12" target="u1p-zUHtt3nSpdrAW3po-1" edge="1">
          <mxGeometry relative="1" as="geometry" />
        </mxCell>
        <mxCell id="lVG46q_yBGXqupy8dDVK-12" value="bool" style="rounded=1;whiteSpace=wrap;html=1;" parent="1" vertex="1">
          <mxGeometry x="520" y="750" width="120" height="60" as="geometry" />
        </mxCell>
        <mxCell id="lVG46q_yBGXqupy8dDVK-45" value="" style="edgeStyle=none;rounded=0;orthogonalLoop=1;jettySize=auto;html=1;" parent="1" source="lVG46q_yBGXqupy8dDVK-13" target="lVG46q_yBGXqupy8dDVK-44" edge="1">
          <mxGeometry relative="1" as="geometry" />
        </mxCell>
        <mxCell id="lVG46q_yBGXqupy8dDVK-47" style="edgeStyle=none;rounded=0;orthogonalLoop=1;jettySize=auto;html=1;entryX=0;entryY=0.5;entryDx=0;entryDy=0;" parent="1" source="lVG46q_yBGXqupy8dDVK-13" target="lVG46q_yBGXqupy8dDVK-46" edge="1">
          <mxGeometry relative="1" as="geometry" />
        </mxCell>
        <mxCell id="lVG46q_yBGXqupy8dDVK-13" value="must" style="rounded=1;whiteSpace=wrap;html=1;" parent="1" vertex="1">
          <mxGeometry x="740" y="680" width="120" height="60" as="geometry" />
        </mxCell>
        <mxCell id="lVG46q_yBGXqupy8dDVK-14" value="must_not" style="rounded=1;whiteSpace=wrap;html=1;" parent="1" vertex="1">
          <mxGeometry x="740" y="780" width="120" height="60" as="geometry" />
        </mxCell>
        <mxCell id="lVG46q_yBGXqupy8dDVK-15" value="should" style="rounded=1;whiteSpace=wrap;html=1;" parent="1" vertex="1">
          <mxGeometry x="740" y="890" width="120" height="60" as="geometry" />
        </mxCell>
        <mxCell id="lVG46q_yBGXqupy8dDVK-19" value="match_all" style="rounded=1;whiteSpace=wrap;html=1;" parent="1" vertex="1">
          <mxGeometry x="510" y="230" width="120" height="60" as="geometry" />
        </mxCell>
        <mxCell id="lVG46q_yBGXqupy8dDVK-23" style="edgeStyle=none;rounded=0;orthogonalLoop=1;jettySize=auto;html=1;" parent="1" source="lVG46q_yBGXqupy8dDVK-20" target="lVG46q_yBGXqupy8dDVK-21" edge="1">
          <mxGeometry relative="1" as="geometry" />
        </mxCell>
        <mxCell id="lVG46q_yBGXqupy8dDVK-20" value="filtered" style="rounded=1;whiteSpace=wrap;html=1;" parent="1" vertex="1">
          <mxGeometry x="515" y="-140" width="120" height="60" as="geometry" />
        </mxCell>
        <mxCell id="lVG46q_yBGXqupy8dDVK-22" style="edgeStyle=none;rounded=0;orthogonalLoop=1;jettySize=auto;html=1;" parent="1" source="lVG46q_yBGXqupy8dDVK-21" target="lVG46q_yBGXqupy8dDVK-6" edge="1">
          <mxGeometry relative="1" as="geometry" />
        </mxCell>
        <mxCell id="lVG46q_yBGXqupy8dDVK-21" value="filter" style="rounded=1;whiteSpace=wrap;html=1;" parent="1" vertex="1">
          <mxGeometry x="860" y="-140" width="120" height="60" as="geometry" />
        </mxCell>
        <mxCell id="lVG46q_yBGXqupy8dDVK-31" style="edgeStyle=none;rounded=0;orthogonalLoop=1;jettySize=auto;html=1;" parent="1" source="lVG46q_yBGXqupy8dDVK-28" target="lVG46q_yBGXqupy8dDVK-29" edge="1">
          <mxGeometry relative="1" as="geometry" />
        </mxCell>
        <mxCell id="lVG46q_yBGXqupy8dDVK-28" value="terms" style="rounded=1;whiteSpace=wrap;html=1;" parent="1" vertex="1">
          <mxGeometry x="730" y="1169" width="120" height="60" as="geometry" />
        </mxCell>
        <mxCell id="lVG46q_yBGXqupy8dDVK-29" value="field" style="rounded=1;whiteSpace=wrap;html=1;" parent="1" vertex="1">
          <mxGeometry x="940" y="1169" width="120" height="60" as="geometry" />
        </mxCell>
        <mxCell id="lVG46q_yBGXqupy8dDVK-34" value="&lt;span style=&quot;text-align: left;&quot;&gt;highlight&lt;/span&gt;" style="rounded=1;whiteSpace=wrap;html=1;" parent="1" vertex="1">
          <mxGeometry x="240" y="1349" width="120" height="60" as="geometry" />
        </mxCell>
        <mxCell id="lVG46q_yBGXqupy8dDVK-40" style="edgeStyle=none;rounded=0;orthogonalLoop=1;jettySize=auto;html=1;entryX=0;entryY=0.5;entryDx=0;entryDy=0;" parent="1" source="lVG46q_yBGXqupy8dDVK-39" target="lVG46q_yBGXqupy8dDVK-28" edge="1">
          <mxGeometry relative="1" as="geometry" />
        </mxCell>
        <mxCell id="lVG46q_yBGXqupy8dDVK-39" value="agg 名称" style="rounded=1;whiteSpace=wrap;html=1;" parent="1" vertex="1">
          <mxGeometry x="500" y="1169" width="120" height="60" as="geometry" />
        </mxCell>
        <mxCell id="lVG46q_yBGXqupy8dDVK-41" value="aggs 可以有 aggs" style="text;html=1;strokeColor=none;fillColor=none;align=center;verticalAlign=middle;whiteSpace=wrap;rounded=0;" parent="1" vertex="1">
          <mxGeometry x="250" y="1249" width="180" height="30" as="geometry" />
        </mxCell>
        <mxCell id="lVG46q_yBGXqupy8dDVK-42" value="query 里可以有 query" style="text;html=1;strokeColor=none;fillColor=none;align=center;verticalAlign=middle;whiteSpace=wrap;rounded=0;" parent="1" vertex="1">
          <mxGeometry x="180" y="310" width="150" height="30" as="geometry" />
        </mxCell>
        <mxCell id="lVG46q_yBGXqupy8dDVK-44" value="object" style="rounded=1;whiteSpace=wrap;html=1;" parent="1" vertex="1">
          <mxGeometry x="940" y="680" width="120" height="60" as="geometry" />
        </mxCell>
        <mxCell id="lVG46q_yBGXqupy8dDVK-46" value="array" style="rounded=1;whiteSpace=wrap;html=1;" parent="1" vertex="1">
          <mxGeometry x="940" y="770" width="120" height="60" as="geometry" />
        </mxCell>
        <mxCell id="lVG46q_yBGXqupy8dDVK-51" value="range" style="rounded=1;whiteSpace=wrap;html=1;" parent="1" vertex="1">
          <mxGeometry x="530" width="120" height="60" as="geometry" />
        </mxCell>
        <mxCell id="u1p-zUHtt3nSpdrAW3po-1" value="filter" style="whiteSpace=wrap;html=1;rounded=1;" parent="1" vertex="1">
          <mxGeometry x="740" y="1010" width="120" height="60" as="geometry" />
        </mxCell>
        <mxCell id="u1p-zUHtt3nSpdrAW3po-3" value="这里的filtered 是命名查询的意思" style="text;html=1;strokeColor=none;fillColor=none;align=center;verticalAlign=middle;whiteSpace=wrap;rounded=0;" parent="1" vertex="1">
          <mxGeometry x="492.5" y="-60" width="175" height="30" as="geometry" />
        </mxCell>
        <mxCell id="u1p-zUHtt3nSpdrAW3po-4" value="这里的 filter 是去除了 bool must [] 的结构，直接把关键词写出来的结果" style="text;html=1;strokeColor=none;fillColor=none;align=center;verticalAlign=middle;whiteSpace=wrap;rounded=0;" parent="1" vertex="1">
          <mxGeometry x="800" y="-60" width="260" height="30" as="geometry" />
        </mxCell>
      </root>
    </mxGraphModel>
  </diagram>
</mxfile>
